<svg xmlns="http://www.w3.org/2000/svg" viewBox="0 0 401.46 136.97"><title>Asset 2</title><g id="Layer_2" data-name="Layer 2"><g id="Layer_5" data-name="Layer 5"><path style="fill:#f7d059;" d="M396.84,113.64A359.91,359.91,0,0,0,4.23,28.83L14.2,54a332.8,332.8,0,0,1,363.1,78.36Z"/><path style="fill:#010101;" d="M377.21,137,375,134.62A329.71,329.71,0,0,0,15.41,57l-3,1.21L0,27l3-1.2a363,363,0,0,1,279.21,4.32,361.32,361.32,0,0,1,117,81.26l2.27,2.35ZM137.41,27.08c1.76,0,3.5,0,5.27.05a335.82,335.82,0,0,1,234.7,100.64l14.84-14.21a356.89,356.89,0,0,0-249.31-107A354.11,354.11,0,0,0,8.47,30.67L16,49.78a334.35,334.35,0,0,1,121.37-22.7"/></g></g></svg>