<svg xmlns="http://www.w3.org/2000/svg" viewBox="0 0 352.6 298.61"><title>Asset 4</title><g id="Layer_2" data-name="Layer 2"><g id="Layer_3" data-name="Layer 3"><path style="fill:#81cad6;" d="M18.28,294.14q41.67-24.64,130.29-50l.15,0Q247,214.63,297.43,154.54q50.88-60.69,51.88-151L322.2,3.29Q321.3,84,276.73,137.17q-45.06,53.76-135.76,81Q49.05,244.43,4.47,270.81Z"/><path style="fill:#010101;" d="M17.13,298.61,0,269.66,2.81,268c29.82-17.64,76-35.48,137.26-53,59.52-17.83,104.67-44.72,134.16-79.9,29.08-34.68,44.12-79,44.71-131.82L319,0,352.6.29l0,3.27c-.67,60.71-18.39,112.21-52.64,153.08-33.86,40.37-84.41,70.85-150.27,90.6l-.29.07C91,264,47.38,280.72,19.94,297ZM9,272,19.44,289.7c28-16,71.14-32.37,128.24-48.69l.25-.06c64.47-19.33,114-49.12,147-88.5C327.58,113.5,344.75,64.5,346,6.76l-20.58-.18c-1.18,52.91-16.71,97.54-46.18,132.69-30.32,36.17-76.53,63.75-137.33,82C83.05,238.09,38.36,255.14,9,272"/></g></g></svg>