<svg xmlns="http://www.w3.org/2000/svg" viewBox="0 0 153.49 459.6"><title>Asset 1</title><g id="Layer_2" data-name="Layer 2"><g id="Layer_2-2" data-name="Layer 2"><path style="fill:#f2b7b7;" d="M121.61,455.21c58.87-114.28,15.66-165-30.65-219.4C49,186.52,4.08,133.8,50.82,14.1L25.65,4.23C-27,139,23.32,198.09,70.35,253.33c40.24,47.24,77.78,91.32,27.18,189.54Z"/><path style="fill:#010101;" d="M123,459.6,93.13,444.28l1.5-2.91c49.6-96.27,12.51-139.82-26.76-185.93-23.74-27.88-48.29-56.71-60.36-95.87C-6.15,115.26-1.21,64.06,22.61,3L23.8,0,55,12.25l-1.19,3c-46,117.89-2.5,169,39.59,218.42,46.77,54.91,90.94,106.78,31.07,223Zm-21.1-18.15,18.27,9.37c25.26-50,32.38-90.41,22.4-126.91-9-33.07-30.93-58.77-54.1-86C47.51,189.82,1.12,135.35,46.6,16L27.51,8.46c-50,130.81-1.54,187.72,45.33,242.75,40.33,47.35,78.43,92.11,29.07,190.24"/></g></g></svg>