<svg xmlns="http://www.w3.org/2000/svg" viewBox="0 0 125.22 109.81"><title>D_Top</title><g id="Layer_2" data-name="Layer 2"><g id="Layer_1-2" data-name="Layer 1"><path d="M55.65,103.29H8.35L19.77,57.64a66.14,66.14,0,0,0,11.16-3.06A71.58,71.58,0,0,0,50.84,43.31a74.47,74.47,0,0,0,15.58-17.1,68.89,68.89,0,0,0,9-19.69h6.08A43.61,43.61,0,0,1,99.73,10.1a31.73,31.73,0,0,1,12.36,9.75,33.59,33.59,0,0,1,6.1,14.92A48.58,48.58,0,0,1,117,54.12a62.46,62.46,0,0,1-8.59,19.64A68.45,68.45,0,0,1,94.24,89.37,65.64,65.64,0,0,1,76.12,99.62a58.68,58.68,0,0,1-20.47,3.67" style="fill:#35b69f"/><path d="M21.52,50.62l11-44.1H68.59A62.32,62.32,0,0,1,61,22.61,68,68,0,0,1,46.77,38.22,65.49,65.49,0,0,1,28.65,48.47a59.63,59.63,0,0,1-7.13,2.15" style="fill:#937387"/><path d="M19.77,57.63l1.75-7a59.08,59.08,0,0,0,7.13-2.15A65.49,65.49,0,0,0,46.77,38.22,68,68,0,0,0,61,22.61,62.32,62.32,0,0,0,68.59,6.52h6.8a69.07,69.07,0,0,1-9,19.7A74.81,74.81,0,0,1,50.85,43.31,71.78,71.78,0,0,1,30.93,54.58a65.18,65.18,0,0,1-11.16,3.05"/><path d="M55.65,109.81H0L12.83,58.5a67.1,67.1,0,0,0,6.94-.86L8.35,103.29h47.3a58.68,58.68,0,0,0,20.47-3.67A65.64,65.64,0,0,0,94.24,89.37a68.45,68.45,0,0,0,14.21-15.61A62.46,62.46,0,0,0,117,54.12a48.58,48.58,0,0,0,1.15-19.35,33.59,33.59,0,0,0-6.1-14.92A31.73,31.73,0,0,0,99.73,10.1,43.61,43.61,0,0,0,81.47,6.52H75.39c.18-.66.35-1.32.52-2,.37-1.53.69-3,1-4.53h4.61a50,50,0,0,1,21,4.17A38.12,38.12,0,0,1,117.3,15.94a40,40,0,0,1,7.33,17.78,54.94,54.94,0,0,1-1.26,22,68.83,68.83,0,0,1-9.49,21.69A74.61,74.61,0,0,1,98.31,94.46a71.92,71.92,0,0,1-19.92,11.27,65,65,0,0,1-22.74,4.08" style="fill:#00160d"/><path d="M14.5,51.8,27.45,0H70.23q-.28,1.47-.66,3c-.29,1.2-.62,2.38-1,3.55h-36l-11,44.09a57.16,57.16,0,0,1-7,1.19" style="fill:#210000"/><path d="M75.39,6.52h-6.8q.54-1.75,1-3.54c.24-1,.46-2,.65-3h6.63c-.26,1.49-.58,3-1,4.53-.17.67-.34,1.33-.52,2m-62.56,52,1.67-6.7a59.1,59.1,0,0,0,7-1.18l-1.75,7a67.1,67.1,0,0,1-6.94.86"/></g></g></svg>