<svg xmlns="http://www.w3.org/2000/svg" viewBox="0 0 172.69 160.96"><title>DD</title><g id="Layer_2" data-name="Layer 2"><g id="Layer_1-2" data-name="Layer 1"><path d="M4.18,106.55,30,3.26H81.47a46.45,46.45,0,0,1,19.62,3.88A34.79,34.79,0,0,1,114.7,17.9a36.63,36.63,0,0,1,6.71,16.35,51.44,51.44,0,0,1-1.21,20.66,65.27,65.27,0,0,1-9,20.65,71.06,71.06,0,0,1-14.9,16.36,68.31,68.31,0,0,1-19,10.76,61.54,61.54,0,0,1-21.6,3.87H4.18" style="fill:#ed8594"/><path d="M55.65,109.81H0L27.45,0h54a50.18,50.18,0,0,1,21,4.17A38.12,38.12,0,0,1,117.3,15.94a40,40,0,0,1,7.33,17.78,55.29,55.29,0,0,1-1.25,22,69.08,69.08,0,0,1-9.5,21.69,74.86,74.86,0,0,1-15.57,17.1,72.29,72.29,0,0,1-19.92,11.27,65.18,65.18,0,0,1-22.74,4.07m-47.3-6.52h47.3a58.68,58.68,0,0,0,20.47-3.67A65.44,65.44,0,0,0,94.23,89.37a68.26,68.26,0,0,0,14.22-15.61A62.4,62.4,0,0,0,117,54.13a48.6,48.6,0,0,0,1.15-19.35,33.58,33.58,0,0,0-6.1-14.93A31.73,31.73,0,0,0,99.73,10.1,43.61,43.61,0,0,0,81.47,6.52H32.54L8.35,103.29" style="fill:#010101"/><path d="M103.12,154.44H55.82l11.41-45.65a64.72,64.72,0,0,0,11.16-3.06A72,72,0,0,0,98.31,94.47a75.11,75.11,0,0,0,15.58-17.1,68.92,68.92,0,0,0,9-19.7h6.08a43.66,43.66,0,0,1,18.27,3.58A31.69,31.69,0,0,1,159.55,71a33.72,33.72,0,0,1,6.11,14.92,48.6,48.6,0,0,1-1.16,19.35,62.36,62.36,0,0,1-8.59,19.64,68,68,0,0,1-14.21,15.61,65.38,65.38,0,0,1-18.12,10.25,58.62,58.62,0,0,1-20.46,3.67" style="fill:#35b69f"/><path d="M67.23,108.79l1.76-7a58.37,58.37,0,0,0,7.13-2.15A65.44,65.44,0,0,0,94.23,89.37a68.26,68.26,0,0,0,14.22-15.61,61.9,61.9,0,0,0,7.6-16.08h6.8a68.48,68.48,0,0,1-9,19.69,74.86,74.86,0,0,1-15.57,17.1,72.29,72.29,0,0,1-19.92,11.27,64.93,64.93,0,0,1-11.16,3.05"/><path d="M103.12,161H47.46l12.83-51.31a66.76,66.76,0,0,0,6.94-.86L55.82,154.44h47.3a58.62,58.62,0,0,0,20.46-3.67,65.64,65.64,0,0,0,18.12-10.25,68,68,0,0,0,14.21-15.61,62.4,62.4,0,0,0,8.59-19.63,48.66,48.66,0,0,0,1.16-19.36A33.72,33.72,0,0,0,159.55,71a31.69,31.69,0,0,0-12.35-9.75,43.66,43.66,0,0,0-18.27-3.58h-6.08c.19-.65.36-1.32.52-2,.38-1.52.7-3,1-4.53h4.6a50,50,0,0,1,21,4.17,38.23,38.23,0,0,1,14.85,11.77,40,40,0,0,1,7.32,17.78,54.92,54.92,0,0,1-1.25,22,69.06,69.06,0,0,1-9.49,21.69,74.86,74.86,0,0,1-15.57,17.1,72.2,72.2,0,0,1-19.93,11.26A64.86,64.86,0,0,1,103.12,161" style="fill:#00160d"/><path d="M62,103l12.94-51.8h42.78c-.19,1-.41,2-.65,3q-.45,1.78-1,3.54H80l-11,44.1A57.78,57.78,0,0,1,62,103" style="fill:#210000"/><path d="M122.85,57.68h-6.79c.36-1.17.68-2.36,1-3.55.25-1,.46-2,.65-3h6.64c-.26,1.49-.58,3-1,4.53-.16.67-.34,1.33-.52,2m-62.56,52L62,103a59.44,59.44,0,0,0,7-1.18l-1.76,7a66.76,66.76,0,0,1-6.94.86"/></g></g></svg>