<svg xmlns="http://www.w3.org/2000/svg" viewBox="0 0 860.13 548.03"><title>Skate</title><g id="Layer_2" data-name="Layer 2"><g id="Layer_1-2" data-name="Layer 1"><path d="M841.08,241.4c7.12,14.07,10.61,34.32,13.51,51l2,11-3.49,2.44C827.29,323.93,123,544,116.64,527.24c-6-16.11-100-333.31-113.28-381.23C-2.37,125.28,240.7-20.1,255.71,6.5c26.53,47,64.12,113.52,150.2,150.27,21.48,9.16,50.37,15.94,81.67,20.34,34.84,4.92,264,20.39,288.06,23q23.31,2.55,39.65,12.77a70.44,70.44,0,0,1,25.79,28.48" style="fill:#8aceb2"/><path d="M487.58,177.11l.45-3.23c-31.11-4.37-59.79-11.13-80.85-20.11a260.33,260.33,0,0,1-96.24-70.44c-23.21-26.8-39.13-54.95-52.39-78.43A8.84,8.84,0,0,0,253.85,1a17.5,17.5,0,0,0-6.37-1C241.16,0,233,2,223,5.4c-17.35,5.94-39.76,16.3-63.76,28.8a1138.55,1138.55,0,0,0-106,63c-15.27,10.35-28.3,20-37.63,28A98.57,98.57,0,0,0,4.59,136a27.27,27.27,0,0,0-3.21,4.57A10,10,0,0,0,0,145.23a6.42,6.42,0,0,0,.22,1.66h0c6.64,24,33.44,115.28,59.35,202.6,13,43.66,25.69,86.32,35.56,119.07,4.93,16.39,9.15,30.29,12.33,40.61,1.59,5.16,2.91,9.42,3.94,12.66s1.75,5.41,2.18,6.56a4.06,4.06,0,0,0,1.61,2,6.21,6.21,0,0,0,2.43.88,15.8,15.8,0,0,0,2.45.17c3.82,0,9.56-.85,17.41-2.36,29.29-5.7,87.09-21.25,157.91-41.67,106.2-30.62,241.49-72.17,352.44-107.59,55.48-17.71,104.87-33.89,141.5-46.41,18.32-6.27,33.44-11.62,44.57-15.8,5.57-2.09,10.13-3.88,13.62-5.37,1.75-.74,3.22-1.41,4.44-2a22.93,22.93,0,0,0,3-1.68l5.19-3.63-2.32-13.09h0c-1.45-8.33-3-17.62-5.21-26.66s-4.86-17.83-8.61-25.24a73.63,73.63,0,0,0-27-29.76c-11.37-7.11-25.1-11.51-41-13.25-3.09-.34-9.29-.87-17.94-1.56-30.25-2.4-90.17-6.7-146.35-10.93-28.09-2.12-55.24-4.22-77.27-6.06s-38.95-3.42-46.39-4.48l-.46,3.23-.46,3.23c4.48.63,11.88,1.41,21.55,2.32,33.83,3.15,95.24,7.75,150.84,11.87,27.8,2.05,54.14,4,74.85,5.54s35.8,2.76,40.92,3.33c15.16,1.65,27.9,5.8,38.28,12.29a67,67,0,0,1,24.6,27.18c3.39,6.67,6,15,8.08,23.81s3.69,17.93,5.13,26.26l1.6,9-1.78,1.24a26.77,26.77,0,0,1-3.62,1.87c-3.67,1.68-9.62,4.05-17.46,7-29.42,11-85.59,29.8-154,51.83C573.55,396.92,443.41,437.21,334.4,469.23c-54.51,16-103.74,29.95-141.59,39.88-18.92,5-35,8.92-47.44,11.64-6.22,1.35-11.54,2.4-15.81,3.09a65.31,65.31,0,0,1-9.49,1,7.56,7.56,0,0,1-1.57-.12h0l-.43,1.31.81-1.09a1.8,1.8,0,0,0-.38-.22l-.43,1.31.81-1.09-1.47,2,2.29-.86a2.53,2.53,0,0,0-.82-1.11l-1.47,2,2.29-.86c-.33-.86-1.06-3.06-2.07-6.25C102.3,471.66,18.89,190,6.51,145.14h0l-.57.16.58-.07v-.09l-.57.16.58-.07h0a3.22,3.22,0,0,1,.3-1,21.9,21.9,0,0,1,3.64-5.09c3.58-4,9.45-9.26,17-15.19,26.32-20.8,72.86-50.32,117.12-74.53,22.14-12.11,43.72-22.91,61.91-30.64A247.28,247.28,0,0,1,230.8,9.74c7-2.12,12.78-3.23,16.68-3.22a11.73,11.73,0,0,1,4,.57,2.42,2.42,0,0,1,1.36,1C266.14,31.59,282.28,60.2,306,87.6a267,267,0,0,0,98.62,72.17c21.91,9.34,51,16.14,82.5,20.57l.45-3.23" style="fill:#010101"/><rect x="486.72" y="191.23" width="38.89" height="16.29" transform="translate(185.12 638.55) rotate(-75.33)" style="fill:#ed8594"/><polygon points="509.12 220.24 511.22 220.79 521.62 181.06 501.66 175.85 490.7 217.69 510.67 222.89 511.22 220.79 509.12 220.24 509.67 218.14 496.01 214.58 504.76 181.16 516.31 184.17 507.01 219.69 509.12 220.24 509.67 218.14 509.12 220.24" style="fill:#010101"/><rect x="518.82" y="195.14" width="38.89" height="16.29" transform="translate(205.28 672.52) rotate(-75.33)" style="fill:#f7d059"/><polygon points="541.22 224.15 543.33 224.7 553.73 184.97 533.76 179.77 522.81 221.6 542.78 226.81 543.33 224.7 541.22 224.15 541.77 222.05 528.12 218.49 536.87 185.07 548.42 188.08 539.12 223.6 541.22 224.15 541.77 222.05 541.22 224.15" style="fill:#010101"/><rect x="546.95" y="197.65" width="38.89" height="16.29" transform="translate(223.92 701.65) rotate(-75.34)" style="fill:#81cad6"/><polygon points="569.35 226.66 571.46 227.21 581.85 187.48 561.88 182.28 550.94 224.11 570.9 229.32 571.46 227.21 569.35 226.66 569.9 224.56 556.25 221 564.99 187.58 576.54 190.59 567.25 226.11 569.35 226.66 569.9 224.56 569.35 226.66" style="fill:#010101"/><rect x="579.64" y="199.36" width="38.89" height="16.28" transform="matrix(0.25, -0.97, 0.97, 0.25, 246.68, 734.54)" style="fill:#1eb39f"/><polygon points="602.04 228.37 604.14 228.92 614.54 189.19 594.58 183.98 583.63 225.81 603.6 231.02 604.14 228.92 602.04 228.37 602.59 226.26 588.94 222.7 597.69 189.28 609.23 192.29 599.94 227.82 602.04 228.37 602.59 226.26 602.04 228.37" style="fill:#010101"/><rect x="255.74" y="455.78" width="451.03" height="16.29" transform="translate(-123.27 178.65) rotate(-18.69)" style="fill:#8aceb2"/><path d="M268.19,548l-7.31-21.61,433.43-146.6,7.31,21.61-3.09,1.05Zm1-17.52,3.13,9.25L693.35,397.34l-3.13-9.25L269.15,530.51" style="fill:#010101"/></g></g></svg>