<svg xmlns="http://www.w3.org/2000/svg" viewBox="0 0 200.31 200.56"><title>Asset 1</title><g id="Layer_2" data-name="Layer 2"><g id="Layer_1-2" data-name="Layer 1"><g id="Layer_2-2" data-name="Layer 2"><g id="Layer_6" data-name="Layer 6"><path d="M150.57,179.22l1-.94H152l-1.45.94" style="fill:#26a278"/><path d="M158.08,171.46a99.6,99.6,0,0,0,24.21-59.66h0v-1.52h0v-.68a.81.81,0,0,1,0-.22v-.27a.24.24,0,0,0,0-.12v-.25a.74.74,0,0,1,0-.21v-2.65h0V105h0a101.35,101.35,0,0,0-4-26.75h0c-.08-.28-.16-.56-.25-.85h0a1,1,0,0,0-.08-.26h0c-.06-.18-.11-.36-.17-.55v-.06l-.06-.21v-.07a.35.35,0,0,0-.08-.26c-.08-.09-.05-.16-.07-.24V75.7a1.09,1.09,0,0,0-.05-.17v-.32a.29.29,0,0,0-.05-.16v-.32l-.06-.17a.09.09,0,0,1,0-.07l-.07-.19h0l-.08-.23h0a2.25,2.25,0,0,1-.08-.24h0l-.06-.18v-.32a.75.75,0,0,1,0-.16v-.08l-.06-.16v-.31l-.06-.19h0l-.17-.48h0a1.07,1.07,0,0,1-.07-.19V71.7l-.06-.17v-.31l-.06-.17V71l-.06-.18v-.06a1.46,1.46,0,0,0-.07-.19h0l-.27-.7h0a1.07,1.07,0,0,1-.07-.19h0a1.34,1.34,0,0,1-.07-.18v-.06a.87.87,0,0,0-.07-.17V69.2l-.07-.18a0,0,0,0,1,0,0l-.08-.19h0l-.18-.47h0l-.09-.22h0a1.42,1.42,0,0,1-.08-.18v-.06l-.08-.16a.09.09,0,0,0,0-.07.18.18,0,0,0-.07-.17v-.06a.18.18,0,0,0-.07-.17v-.06a1.08,1.08,0,0,1-.08-.19h0l-.09-.23h0c-.06-.16-.13-.31-.2-.46h0l-.09-.19h0a.89.89,0,0,1-.08-.17v-.07l-.07-.16v-.06a.18.18,0,0,0-.07-.17V65.4l-.08-.18h0l-.09-.2h0l-.21-.45h0l-.09-.2h0a.89.89,0,0,1-.08-.17v-.06l-1.15-.94v-.05a.89.89,0,0,1-.08-.17v-.06l-.08-.17h0l-.09-.2h0l-.22-.45h0a.21.21,0,0,0-.08-.19v-.06a1.09,1.09,0,0,0-.08-.15v-.07a.17.17,0,0,0-.08-.16v-.06a1,1,0,0,1-.07-.15v-.07A.15.15,0,0,0,172,61V61l-.08-.18h0c-.07-.14-.14-.29-.22-.44V60.3l-.44-.3v-.06a.8.8,0,0,0-.08-.16v-.07a1.09,1.09,0,0,1-.08-.15V59.5l-.08-.16v-.06L171,59.1h0l-.1-.2h0l-.24-.44h0c0-.06-.07-.13-.11-.2h0l-.09-.17V58a.8.8,0,0,0-.08-.16v-.06l-.09-.16h0l-.09-.17h0l-.11-.18h0l-.37-.65h0l-.1-.19h0a1,1,0,0,0-.1-.17h0l-.11-.18h0l-.1-.18h0l-.11-.19h0c-.12-.22-.24-.43-.37-.64h0l-.11-.19h0l-.11-.17h0l-.1-.17h0l-.1-.18h0l-.12-.2h0l-.39-.63h0l-.13-.2h0l-.11-.19h0l-.11-.19h0l-.12-.2h0c-.22-.35-.44-.7-.67-1h0l-.13-.2h0l-.13-.2h0l-.79-1.19a99.66,99.66,0,0,0-15.28-17.71L160.72,29a93.83,93.83,0,0,1,1.33,142.89q-1.68.19-3.36.33" style="fill:#967473"/><path d="M151.57,178.28q3.42-3.25,6.51-6.82c1.11-.08,2.24-.2,3.36-.33a92.22,92.22,0,0,1-9.42,7.15h-.45" style="fill:#000100"/><path d="M126.91,16.88c-10.07-5-12.9-7-29-10.23,1.23,0,2.45-.07,3.68-.07,11.55,0,20.42,1.24,33.92,6.41,12.36,4,26.59,16,26.59,16l-6.86,6.67-26.69-17.9" style="fill:#967473"/><path d="M120.66,198.3l.6-.19a100.43,100.43,0,0,0,29.31-18.89l1.45-.94a101.09,101.09,0,0,0,12.17-.92,100,100,0,0,1-34.1,18.48c-3,.95-6.2,1.78-9.43,2.46"/><path d="M152,178.28a92.22,92.22,0,0,0,9.42-7.15q4.16-.48,8.34-1.35c1.51-.67,3-1.33,4.45-2a99.62,99.62,0,0,1-10,9.6,101.09,101.09,0,0,1-12.17.92"/><path d="M165.89,50.63a99.16,99.16,0,0,0-16.08-18.9,99.16,99.16,0,0,1,16.08,18.9" style="fill:#060000"/><path d="M61.08,8h0c3-1.28,6.11-2.41,9.14-3.36A101.17,101.17,0,0,1,86.89.91C85,2.42,83.24,4,81.53,5.63A100.38,100.38,0,0,0,61.68,7.8l-.6.19"/><path d="M126.12,15.65C111.79,9.06,103.18,7,91,6A96.38,96.38,0,0,1,99,0h1.23a99.54,99.54,0,0,1,43.06,9.83l-9.2,3.11a93.08,93.08,0,0,0-33.92-6.41c-1.23,0-2.45,0-3.68.07a99.71,99.71,0,0,1,29.59,9.05h0" style="fill:#060000"/><path d="M91,6c-2.78-.24-5.6-.36-8.42-.36h-1Q84.09,3.18,86.89.91A100.75,100.75,0,0,1,99,0,96.38,96.38,0,0,0,91,6"/><path d="M153.89,23.47a95.81,95.81,0,0,0-10.27-6.23l-.71-.37L151.23,14a101.31,101.31,0,0,1,10.17,6.88l-7.51,2.59M144,26.81a99.29,99.29,0,0,0-10-6.91h0a99.29,99.29,0,0,1,10,6.91" style="fill:#000100"/><path d="M142.89,16.88a93.6,93.6,0,0,0-8.73-3.94l9.2-3.11c1.09.52,2.18,1.07,3.26,1.63,1.58.82,3.12,1.69,4.64,2.58l-8.37,2.84m-8.93,3q-3.81-2.29-7.82-4.24h0q4,2,7.81,4.24h0m26.18,8.35q-3-2.51-6.27-4.77l7.56-2.55q3,2.34,5.89,4.89l-7.18,2.43M149.8,31.72Q147,29.16,144,26.8c2,1.56,3.94,3.21,5.82,4.92"/><path d="M161.44,171.13c39.29-33.07,43.68-91.48,9.49-132.27a93.55,93.55,0,0,0-10.82-10.62l7.17-2.43a100.32,100.32,0,0,1,21.61,120.87,101.62,101.62,0,0,1-14.7,21.08q-2.19,1.06-4.45,2-4.19.86-8.34,1.34" style="fill:#060000"/><path d="M99.79,194A93.7,93.7,0,0,1,63.32,14.12,94.16,94.16,0,0,1,75,12.45a100.38,100.38,0,0,0,67.12,165.48,94.76,94.76,0,0,1-23.13,14,94.72,94.72,0,0,1-19.22,2" style="fill:#1ea087"/><path d="M148.89,171.75A93.81,93.81,0,0,1,84.2,12.16c11.4.2,18.73,1.45,32.77,6.59s25.67,15.4,25.67,15.4a94.09,94.09,0,0,1,10.81,132.61q-2.19,2.58-4.56,5" style="fill:#937387"/><path d="M142.14,177.93A100.39,100.39,0,0,1,75,12.45c2.52-.2,5-.31,7.52-.31h1.65a93.81,93.81,0,0,0,64.7,159.61,90,90,0,0,1-6.77,6.18"/><path d="M99.78,200.48A100.22,100.22,0,0,1,61.08,8l.6-.19A101.14,101.14,0,0,1,81.53,5.63Q78.11,8.89,75,12.45a94.16,94.16,0,0,0-11.7,1.67A93.7,93.7,0,0,0,99.79,194,94.72,94.72,0,0,0,119,192a94.39,94.39,0,0,0,23.12-14q4.19.36,8.42.36h1l-1,.94a100.43,100.43,0,0,1-29.31,18.89l-.6.18a101.06,101.06,0,0,1-20.88,2.19"/><path d="M180.94,94a188.13,188.13,0,0,0-6.05-21.75A170.7,170.7,0,0,0,166.46,52L175.9,45l16.86,42Z" style="fill:#967473"/><path d="M117,18.75A92.94,92.94,0,0,0,84.2,12.16,89.72,89.72,0,0,1,91,6a99.44,99.44,0,0,1,35.14,9.67L117,18.77m31.94,153a94.08,94.08,0,0,0-1.27-133c-1.62-1.58-3.29-3.11-5-4.57l7.15-2.42a99.86,99.86,0,0,1,16.11,18.88h0l.13.2h0l.13.2h0l.67,1h0l.12.2h0l.12.19h0l.12.19h0l.13.2h0l.39.64h0l.12.2h0l.1.18h0l.1.17h0l.1.17h0l.11.19h0l.38.64h0l.11.19h0l.1.18h0a1.62,1.62,0,0,1,.1.18h0a1,1,0,0,1,.1.17h0l.1.18h0l.36.65h0l.11.19h0l.09.17h0l.09.16v.06l.09.16v.06l.09.17h0a1.28,1.28,0,0,0,.11.2h0l.24.44h0a1.24,1.24,0,0,1,.1.2h0l.09.17v.06l.09.16v.06l.08.15V59l.08.16v.06l.09.16v.05a3.51,3.51,0,0,0,.22.44V60l.08.17v.06a.22.22,0,0,0,.08.16v.07l.07.15v.07l.08.15v.07l.08.15v.06l.09.19h0c.08.15.15.3.22.45h0l.09.2h0a.89.89,0,0,0,.08.17v.06l.08.17v.05a.89.89,0,0,0,.08.17v.06a.89.89,0,0,0,.08.17h0l.09.2.21.45.09.2h0a1.42,1.42,0,0,0,.08.18l.07.23v.06l.07.16v.07a1.48,1.48,0,0,0,.08.17l.09.19h0c.07.15.14.3.2.46h0l.09.23h0a1.08,1.08,0,0,0,.08.19s.05.17.07.23v.06c0,.06.21.64.21.64s8.9,22.43,8.8,37h0v.86h0v.87a1,1,0,0,0,0,.25V106a1,1,0,0,0,0,.24v1.24a.33.33,0,0,0,0,.14v.12a.81.81,0,0,0,0,.22v.65h0v1.52h0c-1.25,22-9.86,44.65-24.31,61.31q-3.78.31-7.52.31" style="fill:#060000"/><path d="M75,12.45Q78.1,8.9,81.54,5.63h1c2.83,0,5.63.12,8.42.36a90,90,0,0,0-6.77,6.18H82.53c-2.49,0-5,.1-7.51.31m75.52,165.84c-2.82,0-5.63-.12-8.41-.36,2.36-2,4.62-4,6.77-6.18h1.65q3.73,0,7.52-.3c-2,2.36-4.23,4.63-6.51,6.81h-1"/><path d="M136.45,29.35a92.49,92.49,0,0,0-10.84-6.64l8.28-2.81a99.29,99.29,0,0,1,10,6.91l-7.52,2.54" style="fill:#000100"/><path d="M125.61,22.71a91.33,91.33,0,0,0-8.64-4l9.14-3.1q4,2,7.82,4.24l-8.32,2.82m17,11.44q-3-2.53-6.18-4.8L144,26.77q3,2.36,5.81,4.92l-7.15,2.42"/></g></g></g></g></svg>