<svg xmlns="http://www.w3.org/2000/svg" viewBox="0 0 200.5 200.48"><title>Asset 12</title><g id="Layer_2" data-name="Layer 2"><g id="Layer_7" data-name="Layer 7"><path d="M174.79,76.9A96.93,96.93,0,0,1,120.1,195.1c3.05-.64,6.09-1.42,9.12-2.37A96.92,96.92,0,1,0,71.3,7.74Q66.76,9.16,62.46,11A96.94,96.94,0,0,1,174.79,76.9" style="fill:#8aceb2"/><path d="M120.77,198.29l-1.94-6.19A93.66,93.66,0,0,0,63.13,14.18L61.19,8c3-1.28,6.11-2.41,9.14-3.37A100.19,100.19,0,0,1,189,146.67a99.55,99.55,0,0,1-58.84,49.18c-3,.94-6.2,1.77-9.43,2.44M96.64,6.6a100.37,100.37,0,0,1,54.05,172.61,93.7,93.7,0,0,0-7-162,93.14,93.14,0,0,0-47-10.64" style="fill:#010101"/><path d="M7.77,129.19A96.91,96.91,0,0,0,120.1,195.1,96.92,96.92,0,0,0,62.45,11,96.92,96.92,0,0,0,7.77,129.19" style="fill:#ed8594"/><path d="M99.89,200.48A100.22,100.22,0,0,1,61.19,8l.59-.19a100.18,100.18,0,0,1,59.59,190.31l-.6.19a101.54,101.54,0,0,1-20.88,2.18M63.43,14.12A93.66,93.66,0,0,0,119.12,192,93.66,93.66,0,0,0,63.43,14.12" style="fill:#010101"/></g></g></svg>